<?xml version="1.0" encoding="UTF-8"?>
<svg version="1.1" xmlns="http://www.w3.org/2000/svg" width="297" height="259">
<path d="M0 0 C1.07064697 0.06993164 2.14129395 0.13986328 3.24438477 0.21191406 C9.91706524 0.7369843 15.93040054 1.97704532 22.25 4.1875 C19.98344935 6.51808433 17.74951526 8.25511531 15 10 C11.26223911 12.4328982 7.93643274 15.06525704 4.66015625 18.0859375 C3.25 19.1875 3.25 19.1875 1.25 19.1875 C0.98445313 19.77015625 0.71890625 20.3528125 0.4453125 20.953125 C-0.78536654 23.25361001 -2.17660213 24.96261875 -3.875 26.9375 C-7.8046973 31.81687415 -10.33959155 37.15059112 -12.82080078 42.86621094 C-15.14720965 47.93121158 -15.14720965 47.93121158 -18.046875 49.1640625 C-21.32871305 49.19251774 -24.59417535 49.16523981 -27.875 49.0625 C-39.38063359 48.92489296 -48.93537507 51.58947684 -57.34765625 59.734375 C-62.91336934 66.03028369 -63.8110869 73.03239911 -63.75 81.1875 C-62.59264419 89.09609804 -59.08711099 95.68033 -52.8515625 100.72265625 C-42.49132674 107.32778797 -28.92681475 106.49592732 -17.125 106 C-15.90554687 105.96841797 -14.68609375 105.93683594 -13.4296875 105.90429688 C-2.94382205 105.51779863 7.01496842 104.40622512 15.7265625 98.17578125 C17.25 97.1875 17.25 97.1875 19.25 97.1875 C19.52199219 96.60742188 19.79398438 96.02734375 20.07421875 95.4296875 C21.24021079 93.2061678 22.57427073 91.33083733 24.0625 89.3125 C26.72858769 85.40697203 28.26490597 81.60911886 29.75 77.125 C32.85953476 67.93503738 36.98672064 62.27259499 45.25 57.1875 C45.91 57.1875 46.57 57.1875 47.25 57.1875 C47.58 56.1975 47.91 55.2075 48.25 54.1875 C48.25 54.8475 48.25 55.5075 48.25 56.1875 C49.24 55.8575 50.23 55.5275 51.25 55.1875 C54.964472 54.7959141 58.54267978 54.69052487 62.25 55.1875 C64.3125 57.25 64.3125 57.25 65.25 60.1875 C65.59160156 61.16589844 65.93320313 62.14429688 66.28515625 63.15234375 C67.7253998 68.2576897 67.63326983 73.4175503 67.625 78.6875 C67.62338867 79.75105713 67.62177734 80.81461426 67.62011719 81.91040039 C67.48616165 90.56694839 66.27093462 98.02365937 63.25 106.1875 C62.79947266 107.43466797 62.79947266 107.43466797 62.33984375 108.70703125 C54.79973786 127.34512848 40.68250784 139.46689099 22.89453125 147.75 C8.08349612 153.81151986 -7.21680351 155.42210286 -23.0625 155.4375 C-23.77798004 155.43850708 -24.49346008 155.43951416 -25.23062134 155.44055176 C-40.72324897 155.42579584 -56.26780919 154.24012458 -70.75 148.1875 C-71.08 147.5275 -71.41 146.8675 -71.75 146.1875 C-73.40538958 145.49330437 -75.07396902 144.83026152 -76.75 144.1875 C-94.38700597 134.20737603 -106.79283758 117.93738847 -112.5 98.625 C-117.77102831 77.63022621 -114.68556174 55.02049978 -103.5625 36.4375 C-91.81737358 19.08315401 -73.47980384 4.89000217 -52.60351562 0.76318359 C-50.42509975 0.44788656 -48.25399709 0.20535674 -46.0625 0 C-45.2485376 -0.07895508 -44.4345752 -0.15791016 -43.59594727 -0.23925781 C-29.05013094 -1.5147949 -14.54726715 -1.01360269 0 0 Z " fill="#0160BF" transform="translate(125.75,78.8125)"/>
<path d="M0 0 C0.57105469 0.54914063 1.14210938 1.09828125 1.73046875 1.6640625 C1.73046875 2.3240625 1.73046875 2.9840625 1.73046875 3.6640625 C2.32859375 3.9321875 2.92671875 4.2003125 3.54296875 4.4765625 C5.72894729 5.66323656 7.14379469 6.76005363 8.73046875 8.6640625 C8.73046875 9.3240625 8.73046875 9.9840625 8.73046875 10.6640625 C7 12.1875 7 12.1875 4.54296875 14.0390625 C0.20095252 17.42029216 -3.87665667 20.97443894 -7.89453125 24.7265625 C-8.44625 25.24041504 -8.99796875 25.75426758 -9.56640625 26.28369141 C-10.63942647 27.28340565 -11.7121896 28.2833959 -12.78466797 29.28369141 C-14.824805 31.18026075 -16.8811448 33.05669041 -18.95703125 34.9140625 C-19.86001953 35.72617188 -19.86001953 35.72617188 -20.78125 36.5546875 C-22.26953125 37.6640625 -22.26953125 37.6640625 -24.26953125 37.6640625 C-24.59953125 38.3240625 -24.92953125 38.9840625 -25.26953125 39.6640625 C-25.81480469 39.20515625 -26.36007813 38.74625 -26.921875 38.2734375 C-37.19364821 29.91555024 -45.00550226 27.97482782 -58.26953125 27.6640625 C-59.26339844 27.63570312 -60.25726563 27.60734375 -61.28125 27.578125 C-64.54575513 27.52932821 -67.5196983 27.4990275 -70.71875 28.203125 C-73.49944213 28.70560842 -75.66224118 28.52734393 -78.45703125 28.1640625 C-83.75200085 27.61085672 -89.05093903 27.42921043 -94.26953125 28.6640625 C-94.76453125 29.6540625 -94.76453125 29.6540625 -95.26953125 30.6640625 C-96.17703125 30.9321875 -97.08453125 31.2003125 -98.01953125 31.4765625 C-101.80766935 32.86068988 -103.52456543 34.77072015 -106.26953125 37.6640625 C-107.25953125 37.9940625 -108.24953125 38.3240625 -109.26953125 38.6640625 C-110.40400594 40.96539575 -110.40400594 40.96539575 -111.26953125 43.6640625 C-112.68502858 47.15259452 -114.12978907 50.62818327 -115.58203125 54.1015625 C-115.96037109 55.03033203 -116.33871094 55.95910156 -116.72851562 56.91601562 C-120.94907044 66.9496527 -126.21651229 72.37265365 -136.08203125 76.9765625 C-140.80557488 77.99536603 -145.45716801 77.81819513 -150.26953125 77.6640625 C-157.33367788 61.01285974 -155.17739507 40.87967428 -148.4765625 24.265625 C-139.03744802 3.92112584 -123.78610751 -9.41938724 -102.9140625 -17.15625 C-67.14205169 -28.73518597 -29.38140716 -23.44907217 0 0 Z " fill="#3BB684" transform="translate(266.26953125,100.3359375)"/>
<path d="M0 0 C1.07064697 0.06993164 2.14129395 0.13986328 3.24438477 0.21191406 C9.91706524 0.7369843 15.93040054 1.97704532 22.25 4.1875 C19.98344935 6.51808433 17.74951526 8.25511531 15 10 C11.26223911 12.4328982 7.93643274 15.06525704 4.66015625 18.0859375 C3.25 19.1875 3.25 19.1875 1.25 19.1875 C0.98445313 19.77015625 0.71890625 20.3528125 0.4453125 20.953125 C-0.78536654 23.25361001 -2.17660213 24.96261875 -3.875 26.9375 C-7.8046973 31.81687415 -10.33959155 37.15059112 -12.82080078 42.86621094 C-15.14770511 47.9322903 -15.14770511 47.9322903 -18.0546875 49.1640625 C-21.29241154 49.19221662 -24.51330175 49.16536117 -27.75 49.0625 C-35.98335298 48.99805105 -43.75692448 50.13495292 -51.4296875 53.2890625 C-53.75 54.1875 -53.75 54.1875 -56.75 54.1875 C-70.67702368 56.97911599 -84.61964442 69.0590758 -92.75 80.1875 C-93.88583963 82.26379401 -94.96978292 84.36932376 -96 86.5 C-96.52078125 87.56863281 -97.0415625 88.63726562 -97.578125 89.73828125 C-98.15820312 90.95064453 -98.15820312 90.95064453 -98.75 92.1875 C-99.41 92.1875 -100.07 92.1875 -100.75 92.1875 C-101.08 97.7975 -101.41 103.4075 -101.75 109.1875 C-104.225 109.6825 -104.225 109.6825 -106.75 110.1875 C-108.36031468 105.53885575 -109.81002847 101.02163928 -110.75 96.1875 C-111.08209473 95.42445557 -111.41418945 94.66141113 -111.75634766 93.87524414 C-117.10638213 79.40386096 -112.86828614 57.11221403 -107.53515625 42.96484375 C-97.96633828 23.68852929 -79.36415828 9.6625279 -59.42578125 2.58984375 C-54.99141244 1.15949168 -50.69217448 0.43382894 -46.0625 0 C-45.2485376 -0.07895508 -44.4345752 -0.15791016 -43.59594727 -0.23925781 C-29.05013094 -1.5147949 -14.54726715 -1.01360269 0 0 Z " fill="#24B4FD" transform="translate(125.75,78.8125)"/>
<path d="M0 0 C3.24665494 1.45697943 5.85018394 3.6329951 8.5859375 5.8671875 C9.82930369 6.86343528 11.07279717 7.85952419 12.31640625 8.85546875 C12.95497559 9.37061035 13.59354492 9.88575195 14.25146484 10.41650391 C17.44796383 12.98692559 20.67330915 15.52035425 23.8984375 18.0546875 C24.48608887 18.5192334 25.07374023 18.9837793 25.67919922 19.46240234 C28.14208406 21.40344679 30.59992583 23.25151306 33.2109375 24.9921875 C32.3436814 29.53597472 29.72376556 32.01635745 26.5234375 35.1796875 C25.65428711 36.03916992 25.65428711 36.03916992 24.76757812 36.91601562 C5.57162968 55.32845597 -17.78434922 59.69865245 -43.53515625 59.22265625 C-56.04115141 58.84380325 -68.54564338 57.63182373 -80.7890625 54.9921875 C-79.60095645 51.42786936 -78.84873575 51.17370717 -75.7265625 49.3046875 C-64.20384172 41.87244129 -56.04057357 30.57645366 -50.7890625 17.9921875 C-50.7890625 17.3321875 -50.7890625 16.6721875 -50.7890625 15.9921875 C-50.1290625 15.9921875 -49.4690625 15.9921875 -48.7890625 15.9921875 C-48.4590625 14.3421875 -48.1290625 12.6921875 -47.7890625 10.9921875 C-47.15516602 11.03819092 -46.52126953 11.08419434 -45.86816406 11.1315918 C-24.89153867 13.08085211 -24.89153867 13.08085211 -6.41015625 4.4921875 C-4.7461538 3.01612749 -4.7461538 3.01612749 -3.32421875 1.2421875 C-1.7890625 -0.0078125 -1.7890625 -0.0078125 0 0 Z " fill="#168A7A" transform="translate(241.7890625,175.0078125)"/>
<path d="M0 0 C7.92482577 6.26061236 10.37130063 13.30444848 12 23 C11.34 23 10.68 23 10 23 C9.9175 24.03125 9.835 25.0625 9.75 26.125 C8.36621937 33.27453325 3.87709239 37.99062765 -2 42 C-9.22252402 44.99802884 -16.82759271 45.02787089 -24.1875 42.5 C-30.31760509 39.78730783 -34.1246392 35.32450323 -37.375 29.5625 C-39.2971273 21.68177808 -39.2909989 15.56284452 -36 8 C-32.01433835 1.59878583 -25.64113144 -1.82387109 -18.42578125 -3.65234375 C-12.22016062 -4.54171611 -5.47305508 -3.01018029 0 0 Z " fill="#51C373" transform="translate(209,22)"/>
<path d="M0 0 C10.02650644 1.74241118 16.88749892 3.9134855 23.375 11.9375 C27.12534117 19.00545067 27.71033981 25.24198807 26 33 C23.15007219 39.88239827 17.83414134 45.1255309 11.1875 48.375 C2.84079819 50.0116082 -4.58902267 49.43912568 -12 45 C-17.21940424 40.47717038 -21.46431148 34.84711705 -22.2421875 27.80859375 C-22.49130329 19.62929204 -20.60321962 13.81256897 -15 7.80078125 C-11.13985666 4.32514437 -7.19772127 2.18314344 -2 1.75 C-1.34 1.8325 -0.68 1.915 0 2 C0 1.34 0 0.68 0 0 Z " fill="#1691F4" transform="translate(108,17)"/>
<path d="M0 0 C-1.53720703 0.88751953 -1.53720703 0.88751953 -3.10546875 1.79296875 C-4.46638096 2.59074487 -5.82704495 3.38894453 -7.1875 4.1875 C-7.86103516 4.57486328 -8.53457031 4.96222656 -9.22851562 5.36132812 C-13.40496261 7.82645049 -16.67808122 10.41093391 -20 14 C-20.62003906 14.59683594 -21.24007812 15.19367188 -21.87890625 15.80859375 C-25.48130767 19.29397981 -28.32905371 22.72648593 -31 27 C-31.83043231 28.10635015 -32.66392824 29.21040541 -33.5 30.3125 C-38.3610647 37.16900176 -40.41586835 43.41214889 -40.82421875 51.8125 C-41 54 -41 54 -42 55 C-43.69242047 65.76045116 -44.3436594 77.55106438 -41 88 C-32.17595638 87.79347983 -25.19364688 85.52918265 -18.38671875 79.80078125 C-15.63519504 76.57190646 -14.40183299 73.40412493 -13.125 69.4375 C-10.15399718 60.86479564 -6.03900497 53.55850745 -1 46 C0.32 46.66 1.64 47.32 3 48 C1.625 50 1.625 50 0 52 C-0.66 52 -1.32 52 -2 52 C-2.2889917 52.72453369 -2.5779834 53.44906738 -2.87573242 54.19555664 C-4.65149931 58.62514061 -6.47162379 63.03461096 -8.3125 67.4375 C-8.69083984 68.36626953 -9.06917969 69.29503906 -9.45898438 70.25195312 C-13.67953919 80.2855902 -18.94698104 85.70859115 -28.8125 90.3125 C-33.53604363 91.33130353 -38.18763676 91.15413263 -43 91 C-50.06414663 74.34879724 -47.90786382 54.21561178 -41.20703125 37.6015625 C-33.30053002 20.56036566 -21.21968702 7.73564122 -4.1796875 -0.3359375 C-2 -1 -2 -1 0 0 Z " fill="#098692" transform="translate(159,87)"/>
<path d="M0 0 C0 0.66 0 1.32 0 2 C0.598125 2.268125 1.19625 2.53625 1.8125 2.8125 C3.99847854 3.99917406 5.41332594 5.09599113 7 7 C7 7.66 7 8.32 7 9 C5.26953125 10.5234375 5.26953125 10.5234375 2.8125 12.375 C-1.529679 15.75635641 -5.6059447 19.31149878 -9.625 23.0625 C-10.17889404 23.57562744 -10.73278809 24.08875488 -11.3034668 24.61743164 C-13.70210731 26.84272802 -16.08222459 29.0798451 -18.4296875 31.359375 C-19.11289063 32.00390625 -19.79609375 32.6484375 -20.5 33.3125 C-21.0671875 33.86550781 -21.634375 34.41851562 -22.21875 34.98828125 C-24 36 -24 36 -26.60546875 35.796875 C-29.53941057 34.8204898 -30.41033828 33.59365859 -32 31 C-31.34 30.67 -30.68 30.34 -30 30 C-30 30.66 -30 31.32 -30 32 C-26.4835891 32.45454504 -25.27767697 32.20981888 -22.39453125 30.03125 C-21.54246094 29.1959375 -20.69039062 28.360625 -19.8125 27.5 C-15.18055556 23 -15.18055556 23 -13 23 C-13 22.34 -13 21.68 -13 21 C-11.65406935 20.1027129 -10.30328834 19.212138 -8.93359375 18.3515625 C-4.99859261 15.60103645 -1.53603827 12.23743949 2 9 C0.44176692 5.50689929 -1.41638437 3.66257183 -4.43359375 1.28515625 C-6 -0 -6 -0 -8.375 -2.5 C-12.35579631 -6.29123458 -16.77026807 -9.25675602 -22 -11 C-22 -11.66 -22 -12.32 -22 -13 C-22.73863281 -13.18175781 -23.47726563 -13.36351563 -24.23828125 -13.55078125 C-30.33021145 -15.06021758 -36.39276522 -16.63463965 -42.4296875 -18.3515625 C-47.66912736 -19.67336648 -52.75356106 -20.15502106 -58.1484375 -20.31640625 C-58.80582916 -20.33718735 -59.46322083 -20.35796844 -60.14053345 -20.37937927 C-62.21859362 -20.44420753 -64.29676856 -20.50344564 -66.375 -20.5625 C-67.79298011 -20.60574888 -69.21094907 -20.64936509 -70.62890625 -20.69335938 C-74.0858188 -20.79981918 -77.54285706 -20.90126984 -81 -21 C-81 -21.33 -81 -21.66 -81 -22 C-76.84203405 -22.19578734 -72.68375421 -22.3738491 -68.52441406 -22.53710938 C-67.11634094 -22.5946862 -65.70844047 -22.6566961 -64.30078125 -22.72363281 C-39.76700854 -23.88022495 -18.12951095 -17.43379609 0 0 Z " fill="#83D360" transform="translate(268,102)"/>
<path d="M0 0 C0.33 0.66 0.66 1.32 1 2 C1.99 1.67 2.98 1.34 4 1 C7.714472 0.6084141 11.29267978 0.50302487 15 1 C17.0625 3.0625 17.0625 3.0625 18 6 C18.34160156 6.97839844 18.68320313 7.95679688 19.03515625 8.96484375 C20.47543347 14.07030903 20.38285833 19.2299561 20.375 24.5 C20.37367065 26.09207275 20.37367065 26.09207275 20.37231445 27.71630859 C20.20654729 38.79157467 18.17765513 48.11943175 13 58 C12 56 12 56 12.5234375 54.1875 C13.08341845 52.74901683 13.64584976 51.31148472 14.2109375 49.875 C16.62014012 41.09691519 16.18276725 31.71285147 16.1875 22.6875 C16.20586914 20.81481445 16.20586914 20.81481445 16.22460938 18.90429688 C16.22654297 17.70224609 16.22847656 16.50019531 16.23046875 15.26171875 C16.23457764 14.17850342 16.23868652 13.09528809 16.24291992 11.97924805 C15.995052 8.93931618 15.28480551 6.74878998 14 4 C3.72864624 4.96034953 3.72864624 4.96034953 -5 10 C-5.50917969 10.40992188 -6.01835937 10.81984375 -6.54296875 11.2421875 C-11.21755211 15.32811962 -13.05292073 20.20457581 -15 26 C-15.66 26 -16.32 26 -17 26 C-17.15855469 26.58007812 -17.31710938 27.16015625 -17.48046875 27.7578125 C-19.12851687 33.27558687 -21.03581766 36.82153753 -25 41 C-25 38 -25 38 -22.8125 34.6875 C-20.35330702 30.95035561 -18.96334502 27.24346883 -17.5625 23 C-14.40387987 13.79965786 -10.28760704 8.10006587 -2 3 C-1.34 3 -0.68 3 0 3 C0 2.01 0 1.02 0 0 Z " fill="#107880" transform="translate(173,133)"/>
<path d="M0 0 C-1.53720703 0.88751953 -1.53720703 0.88751953 -3.10546875 1.79296875 C-4.46638096 2.59074487 -5.82704495 3.38894453 -7.1875 4.1875 C-7.86103516 4.57486328 -8.53457031 4.96222656 -9.22851562 5.36132812 C-13.40496261 7.82645049 -16.67808122 10.41093391 -20 14 C-20.62003906 14.59683594 -21.24007812 15.19367188 -21.87890625 15.80859375 C-25.48130767 19.29397981 -28.32905371 22.72648593 -31 27 C-31.83043231 28.10635015 -32.66392824 29.21040541 -33.5 30.3125 C-38.3610647 37.16900176 -40.41586835 43.41214889 -40.82421875 51.8125 C-41 54 -41 54 -42 55 C-43.58511601 65.07820675 -43.91108939 75.97436441 -42 86 C-44 85 -44 85 -45 82 C-45.25344425 77.44744203 -45.27101472 72.89242051 -45.29516602 68.33374023 C-45.30659977 66.83559662 -45.32691259 65.33749091 -45.35668945 63.83959961 C-45.73160882 44.95748734 -39.4679927 29.17824897 -26.57348633 15.27978516 C-21.74365655 10.39961887 -6.85616075 -3.42808037 0 0 Z " fill="#0481B9" transform="translate(159,87)"/>
<path d="M0 0 C1.485 0.99 1.485 0.99 3 2 C3 2.66 3 3.32 3 4 C3.66 4 4.32 4 5 4 C5.99 5.485 5.99 5.485 7 7 C9.56282742 7.72965366 9.56282742 7.72965366 12 8 C12 9.65 12 11.3 12 13 C14.97 13.99 17.94 14.98 21 16 C21 16.66 21 17.32 21 18 C21.66 18 22.32 18 23 18 C23.433125 18.474375 23.86625 18.94875 24.3125 19.4375 C25.93593238 21.21352171 25.93593238 21.21352171 28.5 21.5 C31 22 31 22 32.37109375 23.4921875 C34.46049799 25.42626433 35.75615543 25.44931451 38.5625 25.625 C42.84 25.92 42.84 25.92 45 27 C45 27.66 45 28.32 45 29 C55.7327952 30.1162874 66.47121215 30.32212106 77.25 30.5625 C79.07422649 30.60579498 80.89844535 30.64941233 82.72265625 30.69335938 C87.14835847 30.79928691 91.57414071 30.90086126 96 31 C92.41394103 33.23032668 89.41537084 33.27092896 85.2421875 33.30078125 C84.25779945 33.30911232 84.25779945 33.30911232 83.25352478 33.31761169 C81.12712393 33.32941084 79.00140082 33.3231241 76.875 33.3125 C75.79054092 33.31026428 75.79054092 33.31026428 74.68417358 33.3079834 C59.14833923 33.25015155 43.52167522 32.06912653 29 26 C28.67 25.34 28.34 24.68 28 24 C26.34461042 23.30580437 24.67603098 22.64276152 23 22 C14.23019467 17.0374942 5.93629661 10.16410587 0 2 C0 1.34 0 0.68 0 0 Z " fill="#08369B" transform="translate(26,201)"/>
<path d="M0 0 C1.03726315 3.20356657 0.90355816 5.21484281 0.08203125 8.45703125 C-1.24458302 14.55141003 -1.33110553 20.46953083 -1.3125 26.6875 C-1.32861328 27.77611328 -1.34472656 28.86472656 -1.36132812 29.98632812 C-1.36509916 36.18967821 -0.81763942 40.48121271 2 46 C2.165 47.216875 2.33 48.43375 2.5 49.6875 C3.0147187 53.09751139 3.53250543 54.62740907 6 57 C6.99 57 7.98 57 9 57 C8.97679687 56.02417969 8.95359375 55.04835937 8.9296875 54.04296875 C8.91164063 52.77066406 8.89359375 51.49835938 8.875 50.1875 C8.85179687 48.92292969 8.82859375 47.65835938 8.8046875 46.35546875 C9 43 9 43 11 40 C10.93039063 41.84851563 10.93039063 41.84851563 10.859375 43.734375 C10.60236067 53.62292634 11.00968237 61.76938572 15 71 C15.33 71.99 15.66 72.98 16 74 C14 74 14 74 11.75 72.125 C-0.60101298 59.12010986 -4.55973707 40.216383 -4.1953125 22.828125 C-3.65477642 15.0011626 -2.66439622 7.39985672 0 0 Z " fill="#1B77D9" transform="translate(15,131)"/>
<path d="M0 0 C0 0.66 0 1.32 0 2 C-1.609375 3.33203125 -1.609375 3.33203125 -3.75 4.8125 C-8.79583031 8.48543655 -11.951197 12.02432457 -14 18 C-14.66 18 -15.32 18 -16 18 C-16 14.7 -16 11.4 -16 8 C-23.97912714 11.54627873 -29.37941146 15.90855676 -35.5 22.0625 C-36.54124023 23.10760742 -36.54124023 23.10760742 -37.60351562 24.17382812 C-42.67518283 29.3948084 -45.87151726 33.95963402 -48 41 C-48.66 40.67 -49.32 40.34 -50 40 C-46.29704313 25.55846819 -33.71414643 15.39133886 -21.49609375 7.984375 C-16.83790675 5.2738755 -11.9909899 3.02695304 -7 1 C-6.505 1.99 -6.505 1.99 -6 3 C-5.38125 2.505 -4.7625 2.01 -4.125 1.5 C-2 0 -2 0 0 0 Z " fill="#0159D7" transform="translate(77,130)"/>
<path d="M0 0 C1.07064697 0.06993164 2.14129395 0.13986328 3.24438477 0.21191406 C9.91706524 0.7369843 15.93040054 1.97704532 22.25 4.1875 C19.97635823 6.61749536 18.56726155 7.61555835 15.25 8.1875 C15.58 6.5375 15.91 4.8875 16.25 3.1875 C8.40044223 3.01010827 0.55073214 2.8441842 -7.29936409 2.69272423 C-10.94483939 2.62203159 -14.59014732 2.54745449 -18.23535156 2.46386719 C-21.75597073 2.38328188 -25.27666052 2.31307394 -28.79763412 2.24992752 C-30.78850852 2.21155057 -32.77916895 2.16254769 -34.76980591 2.1133728 C-35.99061859 2.09320099 -37.21143127 2.07302917 -38.46923828 2.05224609 C-39.53957306 2.03003998 -40.60990784 2.00783386 -41.712677 1.98495483 C-45.01078433 2.20489051 -47.64488398 3.09671216 -50.75 4.1875 C-53.125 3.8125 -53.125 3.8125 -54.75 3.1875 C-54.75 2.5275 -54.75 1.8675 -54.75 1.1875 C-36.38158336 -1.18809199 -18.47032657 -1.28694775 0 0 Z " fill="#37C7F4" transform="translate(125.75,78.8125)"/>
<path d="M0 0 C0.33 0.66 0.66 1.32 1 2 C-3.39492594 14.61462527 -14.95162455 24.74320903 -25 33 C-12.23159349 35.49867003 0.12908914 36.51330216 13.125 36.6875 C14.87372132 36.72079815 16.62242017 36.75529845 18.37109375 36.79101562 C22.58060091 36.87445413 26.7900699 36.94191208 31 37 C31 37.33 31 37.66 31 38 C25.08252949 39.02025354 19.3112265 39.19253418 13.3125 39.1875 C11.80478027 39.1862915 11.80478027 39.1862915 10.26660156 39.18505859 C-3.24893678 39.07671335 -16.77246005 37.85180907 -30 35 C-28.81189395 31.43568186 -28.05967325 31.18151967 -24.9375 29.3125 C-13.6364045 22.02320385 -6.8892331 11.27329052 0 0 Z " fill="#0A5360" transform="translate(191,195)"/>
<path d="M0 0 C0.33 0 0.66 0 1 0 C0.98839844 0.59167969 0.97679688 1.18335938 0.96484375 1.79296875 C0.91660304 6.01747637 0.99869318 9.86960938 2 14 C2 14.66 2 15.32 2 16 C2.66 16 3.32 16 4 16 C4.33 17.32 4.66 18.64 5 20 C6.32 20.33 7.64 20.66 9 21 C9 21.99 9 22.98 9 24 C10.32 24.33 11.64 24.66 13 25 C13 25.66 13 26.32 13 27 C26.72454549 28.74483463 26.72454549 28.74483463 39 23 C42.04804621 19.95195379 43.60752494 17.06138559 45 13 C45.75 14.625 45.75 14.625 46 17 C42.90144799 22.93889135 38.21029149 27.43052416 32.1875 30.375 C23.84079819 32.0116082 16.41097733 31.43912568 9 27 C3.76155804 22.46067341 -0.57698474 16.76490778 -1.20703125 9.66796875 C-1.27019149 6.11376988 -1.1322523 3.39675689 0 0 Z " fill="#1671D9" transform="translate(87,35)"/>
<path d="M0 0 C0.33 0.99 0.66 1.98 1 3 C1.66 3 2.32 3 3 3 C3.0825 4.03125 3.165 5.0625 3.25 6.125 C4.062251 10.32163015 5.52919434 12.57275344 8 16 C8 16.66 8 17.32 8 18 C8.7425 18.12375 9.485 18.2475 10.25 18.375 C13 19 13 19 14.78125 20.0234375 C21.50695872 22.98369662 31.25693479 21.46381229 38 19 C38.495 17.515 38.495 17.515 39 16 C39.99 16.66 40.98 17.32 42 18 C35.84316137 23.70633824 30.03369559 25.53492632 21.6171875 25.3046875 C14.82520404 24.51397898 9.62191291 22.12459509 5 17.0625 C0.47239985 11.27782498 -0.24466841 7.21771813 0 0 Z " fill="#29A372" transform="translate(171,41)"/>
<path d="M0 0 C1.02222656 0.41121094 2.04445312 0.82242188 3.09765625 1.24609375 C5.84353796 2.518944 8.37777199 3.95151521 10.9375 5.5625 C8.9375 6.5625 8.9375 6.5625 6.53125 5.92578125 C5.5103125 5.57902344 4.489375 5.23226562 3.4375 4.875 C-15.19817869 -0.9524435 -32.64588861 -2.21471791 -52.0625 -2.4375 C-52.0625 -2.7675 -52.0625 -3.0975 -52.0625 -3.4375 C-47.90453405 -3.63328734 -43.74625421 -3.8113491 -39.58691406 -3.97460938 C-38.17884094 -4.0321862 -36.77094047 -4.0941961 -35.36328125 -4.16113281 C-23.35600854 -4.72718995 -11.28886842 -4.67577647 0 0 Z " fill="#70D570" transform="translate(239.0625,83.4375)"/>
<path d="M0 0 C0.33 0 0.66 0 1 0 C0.98952637 0.85754883 0.97905273 1.71509766 0.96826172 2.59863281 C0.93411704 5.78921513 0.90907041 8.97970412 0.89013672 12.17041016 C0.88009747 13.54967315 0.86646323 14.92891496 0.84912109 16.30810547 C0.82478246 18.2938514 0.81456745 20.2797545 0.8046875 22.265625 C0.79421387 23.45961914 0.78374023 24.65361328 0.77294922 25.88378906 C0.99252627 28.89742506 1.43987696 30.46869855 3 33 C3.33 33.66 3.66 34.32 4 35 C10.10695285 34.64999677 14.53818268 33.93073124 20 31 C20.99 31.33 21.98 31.66 23 32 C19.93480519 35.53676324 17.58058119 37.00060047 13 38 C9.32638454 38.15201167 5.67417032 38.11767805 2 38 C-3.2809657 25.55200942 -3.51038909 13.03858805 0 0 Z " fill="#056AA0" transform="translate(114,140)"/>
<path d="M0 0 C-1.02480469 0.59167969 -2.04960937 1.18335937 -3.10546875 1.79296875 C-4.46638096 2.59074487 -5.82704495 3.38894453 -7.1875 4.1875 C-8.19780273 4.76854492 -8.19780273 4.76854492 -9.22851562 5.36132812 C-13.40496261 7.82645049 -16.67808122 10.41093391 -20 14 C-20.93005859 14.89525391 -20.93005859 14.89525391 -21.87890625 15.80859375 C-24.64846176 18.4881869 -27.17451266 21.05215591 -29.25 24.3125 C-31 27 -31 27 -34 29 C-34.54939337 25.33059488 -34.07651524 24.10871718 -31.90234375 21.01953125 C-30.93205653 19.93416228 -29.94238419 18.86591866 -28.9375 17.8125 C-28.40890381 17.24877686 -27.88030762 16.68505371 -27.33569336 16.10424805 C-22.47258056 11.12010278 -7.16344425 -3.58172212 0 0 Z " fill="#21A090" transform="translate(159,87)"/>
<path d="M0 0 C0.8677002 -0.00637985 1.73540039 -0.0127597 2.62939453 -0.01933289 C4.02327393 -0.02100212 4.02327393 -0.02100212 5.4453125 -0.02270508 C6.40679199 -0.02603348 7.36827148 -0.02936188 8.35888672 -0.03279114 C10.38964358 -0.03784866 12.42040873 -0.04019983 14.45117188 -0.04003906 C17.55873249 -0.04222817 20.66593954 -0.06040354 23.7734375 -0.0793457 C25.74739462 -0.08227933 27.72135342 -0.08426433 29.6953125 -0.08520508 C31.08919189 -0.09598335 31.08919189 -0.09598335 32.51123047 -0.10697937 C33.37893066 -0.10390274 34.24663086 -0.10082611 35.140625 -0.09765625 C35.90133301 -0.09908127 36.66204102 -0.10050629 37.44580078 -0.10197449 C39.85030937 0.17784806 41.48123426 0.95130647 43.5703125 2.14526367 C42.80887939 2.14002686 42.04744629 2.13479004 41.26293945 2.12939453 C37.80290558 2.10856842 34.34288491 2.09558554 30.8828125 2.08276367 C29.68462891 2.07438477 28.48644531 2.06600586 27.25195312 2.05737305 C26.09501953 2.05415039 24.93808594 2.05092773 23.74609375 2.04760742 C22.15148315 2.0397522 22.15148315 2.0397522 20.5246582 2.03173828 C17.75306853 2.13824098 15.2748697 2.56808579 12.5703125 3.14526367 C10.8779775 3.03832307 9.1887806 2.86837859 7.5078125 2.64526367 C1.42751105 1.99084431 -4.37046658 2.45791749 -10.4296875 3.14526367 C-7.32979755 0.04537373 -4.24704169 0.02128131 0 0 Z " fill="#30976D" transform="translate(180.4296875,125.854736328125)"/>
<path d="M0 0 C0.99 0.33 1.98 0.66 3 1 C-0.44888158 4.22121664 -3.90275528 7.43645805 -7.37109375 10.63671875 C-9.45021487 12.55537258 -11.50326638 14.4877574 -13.53515625 16.45703125 C-14.20417969 17.08996094 -14.87320313 17.72289062 -15.5625 18.375 C-16.12066406 18.91898438 -16.67882812 19.46296875 -17.25390625 20.0234375 C-19 21 -19 21 -21.6015625 20.79296875 C-24.54100926 19.82113212 -25.40859603 18.59650122 -27 16 C-26.34 15.67 -25.68 15.34 -25 15 C-25 15.66 -25 16.32 -25 17 C-21.4835891 17.45454504 -20.27767697 17.20981888 -17.39453125 15.03125 C-16.54246094 14.1959375 -15.69039062 13.360625 -14.8125 12.5 C-10.18055556 8 -10.18055556 8 -8 8 C-8 7.34 -8 6.68 -8 6 C-6.02678947 4.6273318 -4.02456848 3.29572383 -2 2 C-1.34 1.34 -0.68 0.68 0 0 Z " fill="#67BE5E" transform="translate(263,117)"/>
<path d="M0 0 C1.2170914 3.71630961 0.96199307 7.12126098 0.8125 11 C0.65590488 18.30538608 2.26267755 24.27212313 5 31 C5.33 31.99 5.66 32.98 6 34 C4 34 4 34 1.625 32.0625 C-1.62748631 28.68417345 -3.70525251 24.48957896 -5 20 C-4.505 18.515 -4.505 18.515 -4 17 C-3.01 17 -2.02 17 -1 17 C-1.01160156 16.02417969 -1.02320313 15.04835937 -1.03515625 14.04296875 C-1.04417969 12.77066406 -1.05320312 11.49835938 -1.0625 10.1875 C-1.07410156 8.92292969 -1.08570313 7.65835938 -1.09765625 6.35546875 C-1 3 -1 3 0 0 Z " fill="#1783F6" transform="translate(25,171)"/>
<path d="M0 0 C1.485 0.99 1.485 0.99 3 2 C3 2.66 3 3.32 3 4 C3.66 4 4.32 4 5 4 C5.99 5.485 5.99 5.485 7 7 C9.56282742 7.72965366 9.56282742 7.72965366 12 8 C12 9.65 12 11.3 12 13 C14.97 13.99 17.94 14.98 21 16 C21 16.66 21 17.32 21 18 C21.66 18 22.32 18 23 18 C23.433125 18.474375 23.86625 18.94875 24.3125 19.4375 C26.44693733 21.41383086 28.16307947 21.61663236 31 22 C30.34 23.32 29.68 24.64 29 26 C28.67 25.34 28.34 24.68 28 24 C26.34461042 23.30580437 24.67603098 22.64276152 23 22 C14.23019467 17.0374942 5.93629661 10.16410587 0 2 C0 1.34 0 0.68 0 0 Z " fill="#073CB7" transform="translate(26,201)"/>
<path d="M0 0 C0.99 0.33 1.98 0.66 3 1 C2.51789063 1.32613281 2.03578125 1.65226563 1.5390625 1.98828125 C0.90742188 2.42527344 0.27578125 2.86226562 -0.375 3.3125 C-1.31472656 3.95638672 -1.31472656 3.95638672 -2.2734375 4.61328125 C-5.51710612 7.21849021 -6.47665801 10.20236014 -7.5625 14.0625 C-8.91186441 18.82372881 -8.91186441 18.82372881 -10 21 C-10.66 21 -11.32 21 -12 21 C-12.15855469 21.58007812 -12.31710938 22.16015625 -12.48046875 22.7578125 C-14.12851687 28.27558687 -16.03581766 31.82153753 -20 36 C-20 33 -20 33 -17.8125 29.6875 C-15.35330702 25.95035561 -13.96334502 22.24346883 -12.5625 18 C-10.05287939 10.63686783 -6.81752768 4.18620121 0 0 Z " fill="#087783" transform="translate(168,138)"/>
<path d="M0 0 C1.01900391 0.00676758 1.01900391 0.00676758 2.05859375 0.01367188 C3.70576874 0.0252717 5.35289726 0.04319801 7 0.0625 C7 1.0525 7 2.0425 7 3.0625 C5.16888672 3.01029297 5.16888672 3.01029297 3.30078125 2.95703125 C-7.52542658 2.74319656 -17.4895534 2.95700742 -27.6640625 7.1640625 C-30 8.0625 -30 8.0625 -33 8.0625 C-32.67 7.0725 -32.34 6.0825 -32 5.0625 C-29.45053396 4.19165765 -27.05314743 3.52396803 -24.4375 2.9375 C-23.74591797 2.76863281 -23.05433594 2.59976563 -22.34179688 2.42578125 C-14.89674981 0.66339359 -7.6497871 -0.06830167 0 0 Z " fill="#1DA1EA" transform="translate(102,124.9375)"/>
<path d="M0 0 C0 0.99 0 1.98 0 3 C1.918125 3.4640625 1.918125 3.4640625 3.875 3.9375 C4.59429687 4.11152344 5.31359375 4.28554687 6.0546875 4.46484375 C15.64880925 6.20807277 25.40386017 6.28899526 35.125 6.5625 C36.57292622 6.60580156 38.02084302 6.64941906 39.46875 6.69335938 C42.97906578 6.79921106 46.48948913 6.90080239 50 7 C50 7.33 50 7.66 50 8 C10.94157589 8.61916858 10.94157589 8.61916858 -5 5 C-3.35 3.35 -1.7 1.7 0 0 Z " fill="#077F97" transform="translate(170,224)"/>
<path d="M0 0 C0.66 0 1.32 0 2 0 C2 0.66 2 1.32 2 2 C0.390625 3.33203125 0.390625 3.33203125 -1.75 4.8125 C-6.79583031 8.48543655 -9.951197 12.02432457 -12 18 C-12.66 18 -13.32 18 -14 18 C-13.67 14.04 -13.34 10.08 -13 6 C-9.72029056 4.58522338 -6.45133639 3.17660989 -3.125 1.875 C-1.05288462 1.18108974 -1.05288462 1.18108974 0 0 Z " fill="#1277DB" transform="translate(75,130)"/>
<path d="M0 0 C-0.639375 0.103125 -1.27875 0.20625 -1.9375 0.3125 C-2.618125 0.539375 -3.29875 0.76625 -4 1 C-4.33 1.99 -4.66 2.98 -5 4 C-6.75 5.32421875 -6.75 5.32421875 -9 6.6875 C-14.14393541 9.96541711 -18.54558139 13.85096707 -23 18 C-23.66 17.67 -24.32 17.34 -25 17 C-20.20931661 10.9590349 -8.81758235 -2.93919412 0 0 Z " fill="#30C6FB" transform="translate(58,87)"/>
<path d="M0 0 C5.00949122 1.03970572 7.6933759 4.23288154 11.3125 7.6875 C12.240625 8.38875 13.16875 9.09 14.125 9.8125 C16.52676779 11.87115811 17.84358718 13.90429677 19.3125 16.6875 C16.41811969 15.34603607 14.06428861 13.81394631 11.59765625 11.796875 C10.91123047 11.25289062 10.22480469 10.70890625 9.51757812 10.1484375 C8.08391338 9.00359674 6.6594124 7.84718943 5.24414062 6.6796875 C3.30635964 5.16142611 1.5133134 3.79226762 -0.6875 2.6875 C-3.66194482 3.12393007 -3.66194482 3.12393007 -5.6875 4.6875 C-4.07464712 1.820206 -3.23807219 0.82834405 0 0 Z " fill="#35A368" transform="translate(242.6875,176.3125)"/>
<path d="M0 0 C0.33 0 0.66 0 1 0 C1.33 5.94 1.66 11.88 2 18 C2.66 18.33 3.32 18.66 4 19 C4.28919928 20.99226169 4.57264551 22.98722182 4.75390625 24.9921875 C4.9575063 27.20329268 4.9575063 27.20329268 6 30 C5.34 30 4.68 30 4 30 C3.35089846 28.41800369 2.70585306 26.83434276 2.0625 25.25 C1.70285156 24.36828125 1.34320312 23.4865625 0.97265625 22.578125 C-0.85352979 17.73763187 -1.15447183 13.47498194 -1.125 8.3125 C-1.12886719 7.62349609 -1.13273437 6.93449219 -1.13671875 6.22460938 C-1.12669335 1.12669335 -1.12669335 1.12669335 0 0 Z " fill="#0248C9" transform="translate(26,174)"/>
<path d="M0 0 C1 2 1 2 0.3125 4.5625 C-1.29950994 8.78443079 -3.11939549 12.89188335 -5 17 C-5.66 17 -6.32 17 -7 17 C-7.66 20.3 -8.32 23.6 -9 27 C-9.33 27 -9.66 27 -10 27 C-10 18.25353918 -6.42841261 6.42841261 0 0 Z " fill="#0D8598" transform="translate(125,112)"/>
<path d="M0 0 C0.33 0.66 0.66 1.32 1 2 C2.89533342 2.46523063 2.89533342 2.46523063 5.0625 2.625 C6.361875 2.74875 7.66125 2.8725 9 3 C8.67 3.66 8.34 4.32 8 5 C6.21484375 5.38671875 6.21484375 5.38671875 3.9375 5.6875 C-1.01153507 6.65836334 -3.70836971 8.88137963 -7.2734375 12.34375 C-9 14 -9 14 -12 16 C-10.98424386 12.44485352 -9.71823053 10.56562608 -6.875 8.3125 C-5.92625 7.549375 -4.9775 6.78625 -4 6 C-4 5.34 -4 4.68 -4 4 C-2.68 3.67 -1.36 3.34 0 3 C0 2.01 0 1.02 0 0 Z " fill="#129C92" transform="translate(173,133)"/>
<path d="M0 0 C0.80162043 2.32211338 1.13137748 3.5945836 0.36328125 5.96484375 C-3.09398889 12.45525795 -6.38231882 17.33915509 -13 21 C-13.99 20.67 -14.98 20.34 -16 20 C-15.21625 19.7525 -14.4325 19.505 -13.625 19.25 C-10.48408233 17.75432492 -10.43696981 17.04299488 -9 14 C-8.04047674 13.06279124 -7.05849755 12.14835073 -6.0625 11.25 C-2.55838312 7.90866605 -1.42238422 4.58323805 0 0 Z " fill="#076A8C" transform="translate(148,154)"/>
<path d="M0 0 C0.33 0.66 0.66 1.32 1 2 C-0.27048327 2.70896103 -1.54141844 3.4171122 -2.8125 4.125 C-3.62976563 4.58132812 -4.44703125 5.03765625 -5.2890625 5.5078125 C-7.12841647 6.5202523 -8.97786541 7.51452422 -10.8359375 8.4921875 C-16.06513293 11.25721412 -20.63908827 13.99267571 -25 18 C-25 17.01 -25 16.02 -25 15 C-17.98276441 8.47809869 -8.46426843 4.34499113 0 0 Z " fill="#0265DC" transform="translate(69,131)"/>
<path d="M0 0 C0.99 0.66 1.98 1.32 3 2 C-3.44604839 7.97438631 -9.16419175 9.21233808 -17.86328125 9.265625 C-20 9 -20 9 -22 7 C-21.07058594 6.96261719 -20.14117187 6.92523438 -19.18359375 6.88671875 C-9.66189203 6.50314541 -9.66189203 6.50314541 -1 3 C-0.67 2.01 -0.34 1.02 0 0 Z " fill="#2E9B5F" transform="translate(210,57)"/>
<path d="M0 0 C0.66 0.33 1.32 0.66 2 1 C0.92618483 2.77662117 -0.159458 4.54609689 -1.25 6.3125 C-1.85328125 7.29863281 -2.4565625 8.28476563 -3.078125 9.30078125 C-4.87840898 11.82922888 -6.41840585 13.326533 -9 15 C-9.45842179 11.46633206 -9.18346888 10.2493575 -7.03125 7.32421875 C-6.1959375 6.45410156 -5.360625 5.58398438 -4.5 4.6875 C-3.6646875 3.80449219 -2.829375 2.92148438 -1.96875 2.01171875 C-1.3190625 1.34785156 -0.669375 0.68398437 0 0 Z " fill="#169493" transform="translate(134,101)"/>
<path d="M0 0 C8.89643422 -1.0344691 17.63109714 3.32937569 25 8 C23 9 23 9 20.8359375 8.44140625 C19.61777344 8.00634766 19.61777344 8.00634766 18.375 7.5625 C17.55773437 7.27503906 16.74046875 6.98757812 15.8984375 6.69140625 C15.27195313 6.46324219 14.64546875 6.23507813 14 6 C14 5.34 14 4.68 14 4 C9.38 3.01 4.76 2.02 0 1 C0 0.67 0 0.34 0 0 Z " fill="#6FC360" transform="translate(225,81)"/>
<path d="M0 0 C3.70812524 -0.28330329 7.30128948 -0.44667785 11 0 C13.25 2.3125 13.25 2.3125 14 5 C13.67 5.99 13.34 6.98 13 8 C11.5 6.625 11.5 6.625 10 5 C10 4.34 10 3.68 10 3 C9.36191406 2.95101562 8.72382813 2.90203125 8.06640625 2.8515625 C7.24011719 2.77679688 6.41382813 2.70203125 5.5625 2.625 C4.73878906 2.55539063 3.91507813 2.48578125 3.06640625 2.4140625 C2.38449219 2.27742187 1.70257813 2.14078125 1 2 C0.67 1.34 0.34 0.68 0 0 Z " fill="#1C8A79" transform="translate(177,134)"/>
<path d="M0 0 C1.485 0.99 1.485 0.99 3 2 C3 2.66 3 3.32 3 4 C3.66 4 4.32 4 5 4 C5.99 5.485 5.99 5.485 7 7 C9.56282742 7.72965366 9.56282742 7.72965366 12 8 C12 9.98 12 11.96 12 14 C7.4857225 10.33133644 3.49848894 6.66465192 0 2 C0 1.34 0 0.68 0 0 Z " fill="#0D4ABA" transform="translate(26,201)"/>
<path d="M0 0 C6.96327638 -0.33693273 12.43345544 0.6969113 19 3 C16.72635823 5.42999536 15.31726155 6.42805835 12 7 C12.33 5.35 12.66 3.7 13 2 C8.71 1.67 4.42 1.34 0 1 C0 0.67 0 0.34 0 0 Z " fill="#37C0DC" transform="translate(129,80)"/>
<path d="M0 0 C0.66 0.33 1.32 0.66 2 1 C1.57847656 1.62648438 1.15695313 2.25296875 0.72265625 2.8984375 C0.17480469 3.71570313 -0.37304688 4.53296875 -0.9375 5.375 C-1.48277344 6.18710937 -2.02804688 6.99921875 -2.58984375 7.8359375 C-4.01093879 9.92719184 -4.01093879 9.92719184 -5 12 C-5.99 12 -6.98 12 -8 12 C-6.49087042 7.01987239 -3.44338151 3.75740058 0 0 Z " fill="#218DE8" transform="translate(95,23)"/>
<path d="M0 0 C-0.59167969 0.19335938 -1.18335937 0.38671875 -1.79296875 0.5859375 C-5.19614558 1.70737587 -8.56177587 2.81899438 -11.875 4.1875 C-14 5 -14 5 -17 5 C-16.67 4.01 -16.34 3.02 -16 2 C-13.41796875 1.015625 -13.41796875 1.015625 -10.1875 0.25 C-9.12917969 -0.01296875 -8.07085937 -0.2759375 -6.98046875 -0.546875 C-4.18266064 -0.97222984 -2.62468156 -0.94056385 0 0 Z " fill="#1D8CE9" transform="translate(86,128)"/>
<path d="M0 0 C1.66832577 2.50248865 2.62381674 4.41149187 3.625 7.1875 C3.88539062 7.90292969 4.14578125 8.61835938 4.4140625 9.35546875 C4.60742188 9.89816406 4.80078125 10.44085938 5 11 C3 11 3 11 0.375 8.75 C-2 6 -2 6 -2 2 C-1.34 1.34 -0.68 0.68 0 0 Z " fill="#146CE5" transform="translate(26,194)"/>
<path d="M0 0 C0.99 0.33 1.98 0.66 3 1 C2.360625 1.103125 1.72125 1.20625 1.0625 1.3125 C0.381875 1.539375 -0.29875 1.76625 -1 2 C-1.33 2.99 -1.66 3.98 -2 5 C-4.21701147 6.58965571 -6.57862473 7.72327486 -9 9 C-9.66 8.34 -10.32 7.68 -11 7 C-9.23754778 5.8000962 -7.46473019 4.61540483 -5.6875 3.4375 C-4.70136719 2.77621094 -3.71523438 2.11492187 -2.69921875 1.43359375 C-1.80847656 0.96050781 -0.91773438 0.48742187 0 0 Z " fill="#30BDF1" transform="translate(55,86)"/>
<path d="M0 0 C1.27797059 3.83391177 0.91106065 7.12993895 0 11 C-1.5625 13.5 -1.5625 13.5 -3 15 C-3.33 12.03 -3.66 9.06 -4 6 C-3.34 5.67 -2.68 5.34 -2 5 C-1.27840576 3.35636866 -0.60648579 1.68949614 0 0 Z " fill="#098FAE" transform="translate(118,130)"/>
<path d="M0 0 C1.32 0.66 2.64 1.32 4 2 C2.625 4 2.625 4 1 6 C0.34 6 -0.32 6 -1 6 C-1.33 6.66 -1.66 7.32 -2 8 C-2.66 8 -3.32 8 -4 8 C-2.87548273 5.0280615 -1.77706209 2.66559313 0 0 Z " fill="#118F87" transform="translate(158,133)"/>
<path d="M0 0 C0.99 0 1.98 0 3 0 C1 4 -1 8 -3 12 C-3.66 12 -4.32 12 -5 12 C-5 10.68 -5 9.36 -5 8 C-4.34 8 -3.68 8 -3 8 C-1.92474806 5.34771188 -0.90543849 2.71631546 0 0 Z " fill="#136DCB" transform="translate(66,136)"/>
<path d="M0 0 C0.33 0.66 0.66 1.32 1 2 C4.62528568 2.20140476 6.86501708 1.85776765 10 0 C7.375 4.875 7.375 4.875 4 6 C2.35 4.35 0.7 2.7 -1 1 C-0.67 0.67 -0.34 0.34 0 0 Z " fill="#69CF6A" transform="translate(237,132)"/>
<path d="M0 0 C3.16115776 1.36983503 3.9927092 1.9890638 6 5 C6 5.99 6 6.98 6 8 C5.01 8 4.02 8 3 8 C3 7.01 3 6.02 3 5 C2.01 5 1.02 5 0 5 C0 3.35 0 1.7 0 0 Z " fill="#0964CD" transform="translate(62,169)"/>
<path d="M0 0 C0.721875 0.268125 1.44375 0.53625 2.1875 0.8125 C1.1875 2.8125 1.1875 2.8125 -1.6875 3.9375 C-4.8125 4.8125 -4.8125 4.8125 -7.8125 4.8125 C-3.50480769 -0.23365385 -3.50480769 -0.23365385 0 0 Z " fill="#179885" transform="translate(169.8125,128.1875)"/>
<path d="M0 0 C0.99 0.33 1.98 0.66 3 1 C-0.96 4.465 -0.96 4.465 -5 8 C-5.33 7.01 -5.66 6.02 -6 5 C-1.60546875 0.99609375 -1.60546875 0.99609375 0 0 Z " fill="#70C95A" transform="translate(263,117)"/>
<path d="M0 0 C7.63076923 1.47692308 7.63076923 1.47692308 9.5 4.125 C9.665 4.74375 9.83 5.3625 10 6 C5 4 5 4 0 2 C0 1.34 0 0.68 0 0 Z " fill="#84DA65" transform="translate(246,89)"/>
<path d="M0 0 C0 3 0 3 -1.53125 4.82421875 C-2.1809375 5.43910156 -2.830625 6.05398437 -3.5 6.6875 C-4.1496875 7.31011719 -4.799375 7.93273437 -5.46875 8.57421875 C-5.9740625 9.04472656 -6.479375 9.51523438 -7 10 C-7 7 -7 7 -4.625 4.4375 C-3.75875 3.633125 -2.8925 2.82875 -2 2 C-1.34 1.34 -0.68 0.68 0 0 Z " fill="#0B969E" transform="translate(169,139)"/>
<path d="M0 0 C0.66 0.66 1.32 1.32 2 2 C-0.25 4.5625 -0.25 4.5625 -3 7 C-5.3125 6.8125 -5.3125 6.8125 -7 6 C-4.83312509 3.72478134 -2.54379491 1.84205838 0 0 Z " fill="#0A5578" transform="translate(168,223)"/>
<path d="M0 0 C0.99 0.33 1.98 0.66 3 1 C-1.39453125 5.00390625 -1.39453125 5.00390625 -3 6 C-3.99 5.67 -4.98 5.34 -6 5 C-1.60546875 0.99609375 -1.60546875 0.99609375 0 0 Z " fill="#7ECF5E" transform="translate(270,111)"/>
<path d="M0 0 C0.33 0.66 0.66 1.32 1 2 C-2.625 7.75 -2.625 7.75 -6 10 C-4.6302836 6.00499382 -2.74277578 3.19990508 0 0 Z " fill="#10A8AC" transform="translate(131,106)"/>
<path d="M0 0 C0.99 0.66 1.98 1.32 3 2 C-2.75 7 -2.75 7 -5 7 C-5 6.34 -5 5.68 -5 5 C-3.68212715 3.97971135 -2.34789347 2.98028616 -1 2 C-0.67 1.34 -0.34 0.68 0 0 Z " fill="#42A35F" transform="translate(210,57)"/>
<path d="" fill="#003FFF" transform="translate(0,0)"/>
<path d="" fill="#003FDF" transform="translate(0,0)"/>
<path d="" fill="#00FFFF" transform="translate(0,0)"/>
<path d="M0 0 C2 1 2 1 2 1 Z " fill="#00BFFF" transform="translate(98,128)"/>
<path d="M0 0 C2 1 2 1 2 1 Z " fill="#00BFFF" transform="translate(94,128)"/>
<path d="" fill="#00BFFF" transform="translate(0,0)"/>
<path d="" fill="#00FFFF" transform="translate(0,0)"/>
<path d="M0 0 C2 1 2 1 2 1 Z " fill="#55AAFF" transform="translate(63,81)"/>
<path d="M0 0 C2 1 2 1 2 1 Z " fill="#55AA55" transform="translate(218,77)"/>
<path d="M0 0 C2 1 2 1 2 1 Z " fill="#00BFFF" transform="translate(115,17)"/>
<path d="M0 0 C2 1 2 1 2 1 Z " fill="#4AB4DF" transform="translate(103,17)"/>
<path d="" fill="#000000" transform="translate(0,0)"/>
<path d="" fill="#00FF00" transform="translate(0,0)"/>
<path d="" fill="#007F7F" transform="translate(0,0)"/>
<path d="" fill="#0000FF" transform="translate(0,0)"/>
<path d="" fill="#0055AA" transform="translate(0,0)"/>
<path d="" fill="#00FF00" transform="translate(0,0)"/>
<path d="" fill="#007F7F" transform="translate(0,0)"/>
<path d="" fill="#007F7F" transform="translate(0,0)"/>
<path d="" fill="#0000FF" transform="translate(0,0)"/>
<path d="" fill="#007F7F" transform="translate(0,0)"/>
<path d="" fill="#0055AA" transform="translate(0,0)"/>
<path d="" fill="#0000FF" transform="translate(0,0)"/>
<path d="" fill="#00FF00" transform="translate(0,0)"/>
<path d="" fill="#00FF00" transform="translate(0,0)"/>
<path d="" fill="#00FF00" transform="translate(0,0)"/>
<path d="" fill="#007F7F" transform="translate(0,0)"/>
<path d="" fill="#00FF00" transform="translate(0,0)"/>
<path d="" fill="#55AA55" transform="translate(0,0)"/>
<path d="" fill="#007F7F" transform="translate(0,0)"/>
<path d="" fill="#00FFFF" transform="translate(0,0)"/>
<path d="" fill="#00FFFF" transform="translate(0,0)"/>
<path d="" fill="#7F7F7F" transform="translate(0,0)"/>
<path d="" fill="#007F7F" transform="translate(0,0)"/>
<path d="" fill="#00FFFF" transform="translate(0,0)"/>
<path d="" fill="#007F7F" transform="translate(0,0)"/>
<path d="" fill="#00FF00" transform="translate(0,0)"/>
<path d="" fill="#007F7F" transform="translate(0,0)"/>
<path d="" fill="#00FFFF" transform="translate(0,0)"/>
<path d="" fill="#00FF00" transform="translate(0,0)"/>
<path d="" fill="#007F7F" transform="translate(0,0)"/>
<path d="" fill="#00BF7F" transform="translate(0,0)"/>
<path d="" fill="#00FF00" transform="translate(0,0)"/>
<path d="" fill="#7FFF7F" transform="translate(0,0)"/>
<path d="" fill="#55AA55" transform="translate(0,0)"/>
<path d="" fill="#007FFF" transform="translate(0,0)"/>
<path d="" fill="#7FFF7F" transform="translate(0,0)"/>
<path d="" fill="#00FF00" transform="translate(0,0)"/>
<path d="" fill="#00FFFF" transform="translate(0,0)"/>
<path d="" fill="#00FFFF" transform="translate(0,0)"/>
<path d="" fill="#007FFF" transform="translate(0,0)"/>
<path d="" fill="#00FFFF" transform="translate(0,0)"/>
<path d="" fill="#00FF00" transform="translate(0,0)"/>
<path d="" fill="#55AAFF" transform="translate(0,0)"/>
<path d="" fill="#00FFFF" transform="translate(0,0)"/>
<path d="" fill="#00FFFF" transform="translate(0,0)"/>
<path d="" fill="#00FF00" transform="translate(0,0)"/>
<path d="" fill="#7F7FFF" transform="translate(0,0)"/>
<path d="" fill="#00FFFF" transform="translate(0,0)"/>
<path d="" fill="#00FFFF" transform="translate(0,0)"/>
<path d="" fill="#55AAFF" transform="translate(0,0)"/>
<path d="" fill="#00FFFF" transform="translate(0,0)"/>
<path d="" fill="#00FFFF" transform="translate(0,0)"/>
<path d="" fill="#7F7FFF" transform="translate(0,0)"/>
<path d="" fill="#00FFFF" transform="translate(0,0)"/>
<path d="" fill="#00FFFF" transform="translate(0,0)"/>
<path d="" fill="#00FFFF" transform="translate(0,0)"/>
<path d="" fill="#00FFFF" transform="translate(0,0)"/>
<path d="" fill="#00FF00" transform="translate(0,0)"/>
<path d="" fill="#00FFFF" transform="translate(0,0)"/>
<path d="" fill="#7FFF7F" transform="translate(0,0)"/>
<path d="" fill="#00FF00" transform="translate(0,0)"/>
<path d="" fill="#00FFFF" transform="translate(0,0)"/>
<path d="" fill="#00FFFF" transform="translate(0,0)"/>
<path d="" fill="#00FF00" transform="translate(0,0)"/>
<path d="" fill="#55AAFF" transform="translate(0,0)"/>
<path d="" fill="#00FF00" transform="translate(0,0)"/>
<path d="" fill="#00FF00" transform="translate(0,0)"/>
<path d="" fill="#00FFFF" transform="translate(0,0)"/>
<path d="" fill="#00FF00" transform="translate(0,0)"/>
<path d="" fill="#00FFFF" transform="translate(0,0)"/>
<path d="" fill="#7FFF7F" transform="translate(0,0)"/>
<path d="" fill="#7F7F7F" transform="translate(0,0)"/>
<path d="" fill="#55AA55" transform="translate(0,0)"/>
<path d="" fill="#00FFFF" transform="translate(0,0)"/>
<path d="" fill="#55AA55" transform="translate(0,0)"/>
<path d="" fill="#00FFFF" transform="translate(0,0)"/>
<path d="" fill="#00FFFF" transform="translate(0,0)"/>
<path d="" fill="#007FFF" transform="translate(0,0)"/>
<path d="" fill="#00FF00" transform="translate(0,0)"/>
<path d="" fill="#7FFF7F" transform="translate(0,0)"/>
<path d="" fill="#7F7F7F" transform="translate(0,0)"/>
<path d="" fill="#007FFF" transform="translate(0,0)"/>
<path d="" fill="#7F7F7F" transform="translate(0,0)"/>
<path d="" fill="#55AA55" transform="translate(0,0)"/>
<path d="" fill="#00FF00" transform="translate(0,0)"/>
<path d="" fill="#55AA55" transform="translate(0,0)"/>
<path d="" fill="#00FF00" transform="translate(0,0)"/>
</svg>
